<svg width="45" height="45" viewBox="0 0 64 64" fill="none" xmlns="http://www.w3.org/2000/svg">
<path fill-rule="evenodd" clip-rule="evenodd" d="M39.9057 15.586C44.0598 17.43 45.6997 22.4676 43.4272 26.4036L32.1244 45.9808C30.0533 49.568 25.4664 50.797 21.8792 48.7259C18.292 46.6549 17.0629 42.068 19.134 38.4808L29.259 20.9437C30.5707 18.6719 33.4757 17.8934 35.7476 19.2051C38.0195 20.5168 38.7979 23.4219 37.4862 25.6937L27.3612 43.2308C27.0851 43.709 26.4735 43.8729 25.9952 43.5968C25.5169 43.3206 25.353 42.709 25.6292 42.2308L35.7542 24.6937C36.5136 23.3784 36.0629 21.6966 34.7476 20.9372C33.4323 20.1778 31.7504 20.6284 30.991 21.9437L20.866 39.4808C19.3472 42.1114 20.2486 45.4751 22.8792 46.9939C25.5098 48.5127 28.8735 47.6114 30.3923 44.9808L41.6952 25.4036C43.3736 22.4965 42.1624 18.7759 39.0943 17.414L39.9057 15.586Z" fill="gray"/>
</svg>
